<svg width="0" height="0" class="hidden">
  <symbol xmlns="http://www.w3.org/2000/svg" viewBox="0 0 256 256" id="phone">
    <rect width="256" height="256" fill="none"></rect>
    <path d="M92.5,124.8a83.6,83.6,0,0,0,39,38.9,8,8,0,0,0,7.9-.6l25-16.7a7.9,7.9,0,0,1,7.6-.7l46.8,20.1a7.9,7.9,0,0,1,4.8,8.3A48,48,0,0,1,176,216,136,136,0,0,1,40,80,48,48,0,0,1,81.9,32.4a7.9,7.9,0,0,1,8.3,4.8l20.1,46.9a8,8,0,0,1-.6,7.5L93,117A8,8,0,0,0,92.5,124.8Z" fill="none" stroke="#000000" stroke-linecap="round" stroke-linejoin="round" stroke-width="10"></path>
  </symbol>
  <symbol xmlns="http://www.w3.org/2000/svg" viewBox="0 0 256 256" id="quotes">
    <rect width="256" height="256" fill="none"></rect>
    <path d="M108,144H40a8,8,0,0,1-8-8V72a8,8,0,0,1,8-8h60a8,8,0,0,1,8,8v88a40,40,0,0,1-40,40" fill="none" stroke="#000000" stroke-linecap="round" stroke-linejoin="round" stroke-width="10"></path>
    <path d="M224,144H156a8,8,0,0,1-8-8V72a8,8,0,0,1,8-8h60a8,8,0,0,1,8,8v88a40,40,0,0,1-40,40" fill="none" stroke="#000000" stroke-linecap="round" stroke-linejoin="round" stroke-width="10"></path>
  </symbol>
  <symbol xmlns="http://www.w3.org/2000/svg" viewBox="0 0 256 256" id="identification-card">
    <rect width="256" height="256" fill="none"></rect>
    <line x1="152" y1="112" x2="192" y2="112" fill="none" stroke="#000000" stroke-linecap="round" stroke-linejoin="round" stroke-width="10"></line>
    <line x1="152" y1="144" x2="192" y2="144" fill="none" stroke="#000000" stroke-linecap="round" stroke-linejoin="round" stroke-width="10"></line>
    <circle cx="92.1" cy="120" r="24" fill="none" stroke="#000000" stroke-linecap="round" stroke-linejoin="round" stroke-width="10"></circle>
    <path d="M61.1,168a32,32,0,0,1,62,0" fill="none" stroke="#000000" stroke-linecap="round" stroke-linejoin="round" stroke-width="10"></path>
    <rect x="32" y="48" width="192" height="160" rx="8" fill="none" stroke="#000000" stroke-linecap="round" stroke-linejoin="round" stroke-width="10"></rect>
  </symbol>
  <symbol xmlns="http://www.w3.org/2000/svg" viewBox="0 0 256 256" id="image">
    <rect width="256" height="256" fill="none"></rect>
    <rect x="32" y="48" width="192" height="160" rx="8" fill="none" stroke="#000000" stroke-linecap="round" stroke-linejoin="round" stroke-width="10"></rect>
    <path d="M32,168l50.3-50.3a8,8,0,0,1,11.4,0l44.6,44.6a8,8,0,0,0,11.4,0l20.6-20.6a8,8,0,0,1,11.4,0L224,184" fill="none" stroke="#000000" stroke-linecap="round" stroke-linejoin="round" stroke-width="10"></path>
    <circle cx="156" cy="100" r="12"></circle>
  </symbol>
  <symbol xmlns="http://www.w3.org/2000/svg" viewBox="0 0 256 256" id="house">
    <rect width="256" height="256" fill="none"></rect>
    <path d="M152,208V160a8,8,0,0,0-8-8H112a8,8,0,0,0-8,8v48a8,8,0,0,1-8,8H48a8,8,0,0,1-8-8V115.5a8.3,8.3,0,0,1,2.6-5.9l80-72.7a8,8,0,0,1,10.8,0l80,72.7a8.3,8.3,0,0,1,2.6,5.9V208a8,8,0,0,1-8,8H160A8,8,0,0,1,152,208Z" fill="none" stroke="#000000" stroke-linecap="round" stroke-linejoin="round" stroke-width="10"></path>
  </symbol>
  <symbol xmlns="http://www.w3.org/2000/svg" viewBox="0 0 256 256" id="currency-dollar">
    <rect width="256" height="256" fill="none"></rect>
    <line x1="128" y1="24" x2="128" y2="232" fill="none" stroke="#000000" stroke-linecap="round" stroke-linejoin="round" stroke-width="10"></line>
    <path d="M184,88a40,40,0,0,0-40-40H108a40,40,0,0,0,0,80h44a40,40,0,0,1,0,80H104a40,40,0,0,1-40-40" fill="none" stroke="#000000" stroke-linecap="round" stroke-linejoin="round" stroke-width="10"></path>
  </symbol>
    <symbol xmlns="http://www.w3.org/2000/svg"  viewBox="0 0 256 256" id="list">
    <rect width="256" height="256" fill="none"></rect>
    <line x1="40" y1="128" x2="216" y2="128"  stroke-linecap="round" stroke-linejoin="round" stroke-width="16"></line>
    <line x1="40" y1="64" x2="216" y2="64"  stroke-linecap="round" stroke-linejoin="round" stroke-width="16"></line>
    <line x1="40" y1="192" x2="216" y2="192" stroke-linecap="round" stroke-linejoin="round" stroke-width="16"></line>
  </symbol>
</svg>